<svg xmlns="http://www.w3.org/2000/svg" xmlns:xlink="http://www.w3.org/1999/xlink" version="1.1" width="256" height="256" viewBox="0 0 256 256" xml:space="preserve">

<defs>
</defs>
<g style="stroke: none; stroke-width: 0; stroke-dasharray: none; stroke-linecap: butt; stroke-linejoin: miter; stroke-miterlimit: 10; fill: none; fill-rule: nonzero; opacity: 1;" transform="translate(1.4065934065934016 1.4065934065934016) scale(2.81 2.81)" >
	<path d="M 89.294 32.499 L 47.281 74.513 c -0.941 0.941 -2.466 0.941 -3.406 0 L 15.487 46.125 c -0.941 -0.941 -0.941 -2.466 0 -3.406 L 57.501 0.706 c 0.941 -0.941 2.466 -0.941 3.406 0 l 28.387 28.387 C 90.235 30.034 90.235 31.559 89.294 32.499 z" style="stroke: none; stroke-width: 1; stroke-dasharray: none; stroke-linecap: butt; stroke-linejoin: miter; stroke-miterlimit: 10; fill: rgb(165,215,110); fill-rule: nonzero; opacity: 1;" transform=" matrix(1 0 0 1 0 0) " stroke-linecap="round" />
	<path d="M 21.236 45.964 c -0.547 0 -0.996 -0.436 -1.01 -0.986 c -0.014 -0.558 0.427 -1.023 0.985 -1.037 l 36.569 -0.943 l 0.943 -36.57 c 0.015 -0.558 0.488 -1.015 1.037 -0.985 c 0.559 0.014 0.999 0.478 0.986 1.037 l -0.968 37.53 c -0.014 0.538 -0.447 0.971 -0.986 0.985 l -37.529 0.967 C 21.254 45.963 21.245 45.964 21.236 45.964 z" style="stroke: none; stroke-width: 1; stroke-dasharray: none; stroke-linecap: butt; stroke-linejoin: miter; stroke-miterlimit: 10; fill: rgb(255,255,255); fill-rule: nonzero; opacity: 1;" transform=" matrix(1 0 0 1 0 0) " stroke-linecap="round" />
	<path d="M 59.084 32.643 c -0.537 0 -0.985 -0.423 -1.009 -0.965 c -0.026 -0.558 0.406 -1.031 0.964 -1.057 l 24.688 -1.137 c 0.55 -0.017 1.031 0.405 1.057 0.964 c 0.026 0.558 -0.406 1.031 -0.964 1.057 l -24.688 1.137 C 59.116 32.642 59.1 32.643 59.084 32.643 z" style="stroke: none; stroke-width: 1; stroke-dasharray: none; stroke-linecap: butt; stroke-linejoin: miter; stroke-miterlimit: 10; fill: rgb(255,255,255); fill-rule: nonzero; opacity: 1;" transform=" matrix(1 0 0 1 0 0) " stroke-linecap="round" />
	<path d="M 45.219 70.063 c -0.016 0 -0.032 0 -0.047 -0.001 c -0.558 -0.026 -0.99 -0.499 -0.964 -1.057 l 1.137 -24.689 c 0.026 -0.558 0.506 -0.979 1.057 -0.964 c 0.558 0.026 0.99 0.499 0.964 1.057 l -1.137 24.689 C 46.203 69.64 45.755 70.063 45.219 70.063 z" style="stroke: none; stroke-width: 1; stroke-dasharray: none; stroke-linecap: butt; stroke-linejoin: miter; stroke-miterlimit: 10; fill: rgb(255,255,255); fill-rule: nonzero; opacity: 1;" transform=" matrix(1 0 0 1 0 0) " stroke-linecap="round" />
	<path d="M 1.011 90 c -0.259 0 -0.517 -0.099 -0.715 -0.296 c -0.395 -0.395 -0.395 -1.035 0 -1.43 L 21.99 66.58 c 0.395 -0.395 1.035 -0.395 1.43 0 c 0.395 0.395 0.395 1.035 0 1.43 L 1.726 89.704 C 1.529 89.901 1.27 90 1.011 90 z" style="stroke: none; stroke-width: 1; stroke-dasharray: none; stroke-linecap: butt; stroke-linejoin: miter; stroke-miterlimit: 10; fill: rgb(91,93,110); fill-rule: nonzero; opacity: 1;" transform=" matrix(1 0 0 1 0 0) " stroke-linecap="round" />
	<path d="M 2.284 69.58 c -0.259 0 -0.517 -0.099 -0.715 -0.296 c -0.395 -0.395 -0.395 -1.035 0 -1.43 l 10.847 -10.847 c 0.395 -0.395 1.035 -0.395 1.43 0 c 0.395 0.395 0.395 1.035 0 1.43 L 2.999 69.283 C 2.802 69.481 2.543 69.58 2.284 69.58 z" style="stroke: none; stroke-width: 1; stroke-dasharray: none; stroke-linecap: butt; stroke-linejoin: miter; stroke-miterlimit: 10; fill: rgb(91,93,110); fill-rule: nonzero; opacity: 1;" transform=" matrix(1 0 0 1 0 0) " stroke-linecap="round" />
	<path d="M 21.432 88.727 c -0.259 0 -0.517 -0.099 -0.715 -0.296 c -0.395 -0.395 -0.395 -1.035 0 -1.43 l 10.847 -10.847 c 0.395 -0.395 1.035 -0.395 1.43 0 c 0.395 0.395 0.395 1.035 0 1.43 L 22.147 88.431 C 21.949 88.628 21.691 88.727 21.432 88.727 z" style="stroke: none; stroke-width: 1; stroke-dasharray: none; stroke-linecap: butt; stroke-linejoin: miter; stroke-miterlimit: 10; fill: rgb(91,93,110); fill-rule: nonzero; opacity: 1;" transform=" matrix(1 0 0 1 0 0) " stroke-linecap="round" />
</g>
</svg>