<svg xmlns="http://www.w3.org/2000/svg" xmlns:xlink="http://www.w3.org/1999/xlink" version="1.1" width="256" height="256" viewBox="0 0 256 256" xml:space="preserve">

<defs>
</defs>
<g style="stroke: none; stroke-width: 0; stroke-dasharray: none; stroke-linecap: butt; stroke-linejoin: miter; stroke-miterlimit: 10; fill: none; fill-rule: nonzero; opacity: 1;" transform="translate(1.4065934065934016 1.4065934065934016) scale(2.81 2.81)" >
	<path d="M 38.26 66.115 l 16.534 16.534 c 1.676 1.676 1.676 4.418 0 6.094 l 0 0 c -1.676 1.676 -4.418 1.676 -6.094 0 L 31.218 71.261" style="stroke: none; stroke-width: 1; stroke-dasharray: none; stroke-linecap: butt; stroke-linejoin: miter; stroke-miterlimit: 10; fill: rgb(210,85,90); fill-rule: nonzero; opacity: 1;" transform=" matrix(1 0 0 1 0 0) " stroke-linecap="round" />
	<path d="M 59.077 38.892 c 3.017 -3.017 2.763 -8.163 -0.568 -11.494 s -8.477 -3.585 -11.494 -0.568 C 49.29 32.46 53.276 36.513 59.077 38.892 z" style="stroke: none; stroke-width: 1; stroke-dasharray: none; stroke-linecap: butt; stroke-linejoin: miter; stroke-miterlimit: 10; fill: rgb(210,85,90); fill-rule: nonzero; opacity: 1;" transform=" matrix(1 0 0 1 0 0) " stroke-linecap="round" />
	<path d="M 30.462 15.436 c -2.634 15.087 -7.869 27.571 -15.707 37.454 l -7.024 7.024 c -5.092 5.092 -5.092 13.348 0 18.44 l 0 0 c 5.092 5.092 13.348 5.092 18.44 0 l 7.024 -7.024 l 0.004 0.005 c 9.882 -7.838 22.367 -13.074 37.453 -15.707 c 1.906 -0.333 2.654 -2.667 1.286 -4.035 l -18.72 -18.72 l -18.72 -18.72 C 33.129 12.782 30.795 13.53 30.462 15.436 z" style="stroke: none; stroke-width: 1; stroke-dasharray: none; stroke-linecap: butt; stroke-linejoin: miter; stroke-miterlimit: 10; fill: rgb(255,100,100); fill-rule: nonzero; opacity: 1;" transform=" matrix(1 0 0 1 0 0) " stroke-linecap="round" />
	<path d="M 68.786 18.325 c -0.262 0 -0.523 -0.1 -0.723 -0.3 c -0.399 -0.4 -0.399 -1.047 0 -1.446 L 84.342 0.3 c 0.4 -0.4 1.047 -0.4 1.446 0 c 0.4 0.4 0.4 1.047 0 1.446 l -16.28 16.28 C 69.309 18.225 69.047 18.325 68.786 18.325 z" style="stroke: none; stroke-width: 1; stroke-dasharray: none; stroke-linecap: butt; stroke-linejoin: miter; stroke-miterlimit: 10; fill: rgb(91,93,110); fill-rule: nonzero; opacity: 1;" transform=" matrix(1 0 0 1 0 0) " stroke-linecap="round" />
	<path d="M 59.639 13.103 c -0.262 0 -0.523 -0.1 -0.723 -0.3 c -0.4 -0.4 -0.4 -1.047 0 -1.446 l 8.14 -8.14 c 0.4 -0.4 1.047 -0.4 1.446 0 c 0.4 0.4 0.4 1.047 0 1.446 l -8.14 8.14 C 60.162 13.003 59.901 13.103 59.639 13.103 z" style="stroke: none; stroke-width: 1; stroke-dasharray: none; stroke-linecap: butt; stroke-linejoin: miter; stroke-miterlimit: 10; fill: rgb(91,93,110); fill-rule: nonzero; opacity: 1;" transform=" matrix(1 0 0 1 0 0) " stroke-linecap="round" />
	<path d="M 74.008 27.471 c -0.262 0 -0.523 -0.1 -0.723 -0.3 c -0.4 -0.4 -0.4 -1.047 0 -1.446 l 8.14 -8.139 c 0.399 -0.4 1.047 -0.4 1.446 0 c 0.4 0.4 0.4 1.047 0 1.446 l -8.14 8.139 C 74.532 27.371 74.27 27.471 74.008 27.471 z" style="stroke: none; stroke-width: 1; stroke-dasharray: none; stroke-linecap: butt; stroke-linejoin: miter; stroke-miterlimit: 10; fill: rgb(91,93,110); fill-rule: nonzero; opacity: 1;" transform=" matrix(1 0 0 1 0 0) " stroke-linecap="round" />
	<path d="M 45.538 15.277 c -0.262 0 -0.523 -0.1 -0.723 -0.3 c -0.4 -0.4 -0.4 -1.047 0 -1.446 l 8.138 -8.138 c 0.4 -0.4 1.047 -0.4 1.446 0 s 0.4 1.047 0 1.446 l -8.138 8.138 C 46.062 15.177 45.8 15.277 45.538 15.277 z" style="stroke: none; stroke-width: 1; stroke-dasharray: none; stroke-linecap: butt; stroke-linejoin: miter; stroke-miterlimit: 10; fill: rgb(91,93,110); fill-rule: nonzero; opacity: 1;" transform=" matrix(1 0 0 1 0 0) " stroke-linecap="round" />
	<path d="M 71.834 41.573 c -0.262 0 -0.523 -0.1 -0.723 -0.3 c -0.4 -0.4 -0.4 -1.047 0 -1.446 l 8.138 -8.138 c 0.399 -0.4 1.047 -0.4 1.446 0 c 0.4 0.4 0.4 1.047 0 1.446 l -8.138 8.138 C 72.357 41.473 72.096 41.573 71.834 41.573 z" style="stroke: none; stroke-width: 1; stroke-dasharray: none; stroke-linecap: butt; stroke-linejoin: miter; stroke-miterlimit: 10; fill: rgb(91,93,110); fill-rule: nonzero; opacity: 1;" transform=" matrix(1 0 0 1 0 0) " stroke-linecap="round" />
</g>
</svg>