<svg xmlns="http://www.w3.org/2000/svg" xmlns:xlink="http://www.w3.org/1999/xlink" version="1.1" width="256" height="256" viewBox="0 0 256 256" xml:space="preserve">

<defs>
</defs>
<g style="stroke: none; stroke-width: 0; stroke-dasharray: none; stroke-linecap: butt; stroke-linejoin: miter; stroke-miterlimit: 10; fill: none; fill-rule: nonzero; opacity: 1;" transform="translate(1.4065934065934016 1.4065934065934016) scale(2.81 2.81)" >
	<path d="M 68.527 90 c -3.641 0 -7.621 -0.623 -11.858 -1.882 c -11.319 -3.361 -23.238 -10.9 -33.563 -21.224 c -3.281 -3.281 -6.317 -6.765 -9.023 -10.353 c -0.665 -0.882 -0.489 -2.135 0.392 -2.8 c 0.881 -0.666 2.135 -0.489 2.8 0.392 c 2.595 3.441 5.507 6.782 8.658 9.933 c 9.862 9.862 21.182 17.042 31.874 20.218 c 10.267 3.05 18.638 2.017 23.566 -2.911 c 4.41 -4.409 5.712 -11.761 3.667 -20.699 c -0.247 -1.077 0.427 -2.149 1.503 -2.395 c 1.083 -0.252 2.149 0.427 2.395 1.503 c 2.364 10.329 0.681 19.001 -4.737 24.419 C 80.358 88.045 74.976 89.999 68.527 90 z" style="stroke: none; stroke-width: 1; stroke-dasharray: none; stroke-linecap: butt; stroke-linejoin: miter; stroke-miterlimit: 10; fill: rgb(94,74,206); fill-rule: nonzero; opacity: 1;" transform=" matrix(1 0 0 1 0 0) " stroke-linecap="round" />
	<path d="M 73.886 36.09 c -0.6 0 -1.194 -0.269 -1.588 -0.783 c -2.483 -3.239 -5.252 -6.393 -8.231 -9.373 C 54.204 16.071 42.884 8.891 32.193 5.715 C 21.923 2.665 13.554 3.699 8.626 8.626 c -4.587 4.587 -5.805 12.287 -3.43 21.681 c 0.271 1.071 -0.378 2.158 -1.448 2.429 c -1.071 0.273 -2.158 -0.378 -2.429 -1.448 C -1.415 20.474 0.176 11.422 5.799 5.799 c 6.013 -6.013 15.792 -7.404 27.532 -3.917 c 11.319 3.362 23.238 10.9 33.563 21.225 c 3.103 3.103 5.99 6.389 8.579 9.768 c 0.672 0.876 0.506 2.131 -0.371 2.803 C 74.738 35.955 74.311 36.09 73.886 36.09 z" style="stroke: none; stroke-width: 1; stroke-dasharray: none; stroke-linecap: butt; stroke-linejoin: miter; stroke-miterlimit: 10; fill: rgb(94,74,206); fill-rule: nonzero; opacity: 1;" transform=" matrix(1 0 0 1 0 0) " stroke-linecap="round" />
	<path d="M 21.485 89.995 c -6.459 0 -11.849 -1.956 -15.687 -5.794 c -6.013 -6.013 -7.404 -15.791 -3.916 -27.532 c 3.362 -11.319 10.9 -23.238 21.225 -33.563 c 3.03 -3.03 6.241 -5.859 9.543 -8.405 c 0.875 -0.676 2.13 -0.513 2.804 0.362 c 0.675 0.874 0.513 2.13 -0.362 2.804 c -3.167 2.443 -6.247 5.156 -9.157 8.066 C 16.071 35.796 8.891 47.116 5.715 57.807 c -3.05 10.27 -2.017 18.639 2.911 23.566 c 4.821 4.821 12.981 5.915 22.977 3.083 c 1.062 -0.3 2.168 0.315 2.469 1.379 c 0.301 1.062 -0.316 2.167 -1.379 2.468 C 28.702 89.435 24.94 89.995 21.485 89.995 z" style="stroke: none; stroke-width: 1; stroke-dasharray: none; stroke-linecap: butt; stroke-linejoin: miter; stroke-miterlimit: 10; fill: rgb(94,74,206); fill-rule: nonzero; opacity: 1;" transform=" matrix(1 0 0 1 0 0) " stroke-linecap="round" />
	<path d="M 53.93 77.361 c -0.62 0 -1.23 -0.287 -1.622 -0.827 c -0.647 -0.894 -0.447 -2.144 0.447 -2.792 c 3.935 -2.849 7.74 -6.104 11.311 -9.675 c 9.862 -9.863 17.042 -21.182 20.218 -31.874 c 3.05 -10.269 2.016 -18.639 -2.911 -23.567 c -4.701 -4.7 -12.626 -5.86 -22.313 -3.265 c -1.069 0.287 -2.164 -0.348 -2.449 -1.414 c -0.286 -1.067 0.347 -2.163 1.414 -2.449 c 11.126 -2.981 20.422 -1.454 26.175 4.3 c 6.014 6.013 7.405 15.791 3.917 27.532 c -3.361 11.319 -10.9 23.238 -21.224 33.563 c -3.719 3.721 -7.687 7.114 -11.793 10.087 C 54.747 77.238 54.336 77.361 53.93 77.361 z" style="stroke: none; stroke-width: 1; stroke-dasharray: none; stroke-linecap: butt; stroke-linejoin: miter; stroke-miterlimit: 10; fill: rgb(94,74,206); fill-rule: nonzero; opacity: 1;" transform=" matrix(1 0 0 1 0 0) " stroke-linecap="round" />
	<circle cx="35.946" cy="35.946" r="6.446" style="stroke: none; stroke-width: 1; stroke-dasharray: none; stroke-linecap: butt; stroke-linejoin: miter; stroke-miterlimit: 10; fill: rgb(94,74,206); fill-rule: nonzero; opacity: 1;" transform="  matrix(1 0 0 1 0 0) "/>
	<circle cx="54.046" cy="35.946" r="6.446" style="stroke: none; stroke-width: 1; stroke-dasharray: none; stroke-linecap: butt; stroke-linejoin: miter; stroke-miterlimit: 10; fill: rgb(204,76,76); fill-rule: nonzero; opacity: 1;" transform="  matrix(1 0 0 1 0 0) "/>
	<circle cx="35.946" cy="54.046" r="6.446" style="stroke: none; stroke-width: 1; stroke-dasharray: none; stroke-linecap: butt; stroke-linejoin: miter; stroke-miterlimit: 10; fill: rgb(204,76,76); fill-rule: nonzero; opacity: 1;" transform="  matrix(1 0 0 1 0 0) "/>
	<circle cx="54.046" cy="54.046" r="6.446" style="stroke: none; stroke-width: 1; stroke-dasharray: none; stroke-linecap: butt; stroke-linejoin: miter; stroke-miterlimit: 10; fill: rgb(94,74,206); fill-rule: nonzero; opacity: 1;" transform="  matrix(1 0 0 1 0 0) "/>
</g>
</svg>