<svg xmlns="http://www.w3.org/2000/svg" xmlns:xlink="http://www.w3.org/1999/xlink" version="1.1" width="256" height="256" viewBox="0 0 256 256" xml:space="preserve">

<defs>
</defs>
<g style="stroke: none; stroke-width: 0; stroke-dasharray: none; stroke-linecap: butt; stroke-linejoin: miter; stroke-miterlimit: 10; fill: none; fill-rule: nonzero; opacity: 1;" transform="translate(1.4065934065934016 1.4065934065934016) scale(2.81 2.81)" >
	<path d="M 69.96 36.284 c -0.072 -0.116 -0.154 -0.227 -0.227 -0.343 C 60.408 21.067 45.38 11.392 31.237 9.944 c -0.023 -0.002 -0.047 -0.005 -0.07 -0.007 c -0.817 -0.082 -1.631 -0.139 -2.441 -0.166 c -0.081 -0.003 -0.161 -0.003 -0.242 -0.005 c -0.301 -0.008 -0.602 -0.019 -0.902 -0.019 c -0.463 0 -0.924 0.01 -1.384 0.029 c -0.086 0.003 -0.17 0.01 -0.256 0.014 c -0.644 0.031 -1.283 0.085 -1.918 0.155 c -0.202 0.022 -0.405 0.04 -0.606 0.066 c -0.609 0.078 -1.213 0.178 -1.813 0.292 c -0.266 0.05 -0.53 0.104 -0.794 0.161 c -0.563 0.123 -1.122 0.258 -1.675 0.413 c -0.278 0.078 -0.553 0.167 -0.828 0.253 c -0.406 0.127 -0.808 0.264 -1.208 0.41 c -0.187 0.068 -0.381 0.12 -0.567 0.192 C 9.392 14.506 4.095 20.103 1.617 27.49 C 0.533 30.723 0 34.183 0 37.771 c -0.001 7.891 2.58 16.402 7.564 24.476 c 0.072 0.116 0.154 0.227 0.227 0.343 c 9.325 14.874 24.353 24.549 38.496 25.997 c 0.023 0.002 0.047 0.005 0.07 0.007 c 0.817 0.082 1.631 0.139 2.441 0.166 c 0.081 0.003 0.161 0.003 0.242 0.005 c 0.301 0.008 0.602 0.019 0.902 0.019 c 0.463 0 0.924 -0.01 1.384 -0.029 c 0.086 -0.003 0.17 -0.01 0.256 -0.014 c 0.644 -0.031 1.283 -0.085 1.918 -0.155 c 0.202 -0.022 0.405 -0.04 0.606 -0.066 c 0.609 -0.078 1.213 -0.178 1.813 -0.292 c 0.266 -0.05 0.53 -0.104 0.794 -0.161 c 0.563 -0.123 1.122 -0.258 1.675 -0.413 c 0.278 -0.078 0.553 -0.167 0.828 -0.253 c 0.406 -0.127 0.808 -0.264 1.208 -0.41 c 0.187 -0.068 0.381 -0.12 0.567 -0.192 c 7.141 -2.774 12.438 -8.371 14.916 -15.758 c 1.084 -3.233 1.618 -6.693 1.617 -10.281 C 77.525 52.868 74.944 44.358 69.96 36.284 z" style="stroke: none; stroke-width: 1; stroke-dasharray: none; stroke-linecap: butt; stroke-linejoin: miter; stroke-miterlimit: 10; fill: rgb(255,255,255); fill-rule: nonzero; opacity: 1;" transform=" matrix(1 0 0 1 0 0) " stroke-linecap="round" />
	<polygon points="78.03,13.31 77.21,1.22 66.26,11.19 66.67,17.24 37.73,45.82 41.93,50.42 73.06,24.26 79.05,25.23 90,15.26 " style="stroke: none; stroke-width: 1; stroke-dasharray: none; stroke-linecap: butt; stroke-linejoin: miter; stroke-miterlimit: 10; fill: rgb(54,131,255); fill-rule: nonzero; opacity: 1;" transform="  matrix(1 0 0 1 0 0) "/>
	<path d="M 68.179 33.589 l -6.75 5.671 c 0.363 0.54 0.716 1.087 1.057 1.638 c 5.787 9.375 7.691 19.595 5.093 27.339 c -1.657 4.941 -5.035 8.524 -9.769 10.363 c -13.038 5.064 -32.626 -4.543 -42.772 -20.978 c -5.787 -9.375 -7.691 -19.595 -5.094 -27.339 c 1.657 -4.941 5.035 -8.525 9.769 -10.364 c 8.761 -3.404 20.691 -0.331 30.827 7.631 l 6.3 -6.221 C 44.013 10.824 28.592 7.045 16.533 11.732 C 9.392 14.506 4.095 20.103 1.617 27.49 c -3.468 10.34 -1.3 23.004 5.947 34.745 c 10.107 16.374 27.118 26.551 42.378 26.549 c 3.839 0 7.57 -0.644 11.049 -1.997 c 7.14 -2.773 12.437 -8.37 14.915 -15.757 c 3.468 -10.341 1.301 -23.005 -5.947 -34.747 C 69.396 35.371 68.795 34.475 68.179 33.589 z" style="stroke: none; stroke-width: 1; stroke-dasharray: none; stroke-linecap: butt; stroke-linejoin: miter; stroke-miterlimit: 10; fill: rgb(201,80,80); fill-rule: nonzero; opacity: 1;" transform=" matrix(1 0 0 1 0 0) " stroke-linecap="round" />
	<path d="M 48.765 49.899 c 0.595 1.949 0.669 3.806 0.164 5.311 c -0.431 1.286 -1.229 2.14 -2.441 2.61 c -3.671 1.422 -10.406 -1.292 -14.216 -7.464 c -1.949 -3.156 -2.628 -6.487 -1.816 -8.908 c 0.431 -1.285 1.229 -2.139 2.441 -2.609 c 1.624 -0.631 3.71 -0.462 5.853 0.355 l 6.622 -6.54 c -5.185 -3.029 -10.92 -3.841 -15.655 -2.003 c -3.636 1.413 -6.331 4.255 -7.589 8.005 c -1.656 4.938 -0.683 10.884 2.67 16.315 c 4.582 7.421 12.398 12.006 19.51 12.006 c 1.857 0 3.668 -0.313 5.36 -0.97 c 3.636 -1.412 6.331 -4.255 7.588 -8.004 c 1.427 -4.257 0.896 -9.263 -1.424 -14.042 L 48.765 49.899 z" style="stroke: none; stroke-width: 1; stroke-dasharray: none; stroke-linecap: butt; stroke-linejoin: miter; stroke-miterlimit: 10; fill: rgb(201,80,80); fill-rule: nonzero; opacity: 1;" transform=" matrix(1 0 0 1 0 0) " stroke-linecap="round" />
	<path d="M 68.179 33.589 l -6.75 5.671 c 0.363 0.54 0.716 1.087 1.057 1.638 c 5.787 9.375 7.691 19.595 5.093 27.339 c -1.657 4.941 -5.035 8.524 -9.769 10.363 c -13.038 5.064 -32.626 -4.543 -42.772 -20.978 c -5.787 -9.375 -7.691 -19.595 -5.094 -27.339 c 1.657 -4.941 5.035 -8.525 9.769 -10.364 c 8.761 -3.404 20.691 -0.331 30.827 7.631 l 6.3 -6.221 C 44.013 10.824 28.592 7.045 16.533 11.732 C 9.392 14.506 4.095 20.103 1.617 27.49 c -3.468 10.34 -1.3 23.004 5.947 34.745 c 10.107 16.374 27.118 26.551 42.378 26.549 c 3.839 0 7.57 -0.644 11.049 -1.997 c 7.14 -2.773 12.437 -8.37 14.915 -15.757 c 3.468 -10.341 1.301 -23.005 -5.947 -34.747 C 69.396 35.371 68.795 34.475 68.179 33.589 z" style="stroke: none; stroke-width: 1; stroke-dasharray: none; stroke-linecap: butt; stroke-linejoin: miter; stroke-miterlimit: 10; fill: rgb(38,70,188); fill-rule: nonzero; opacity: 1;" transform=" matrix(1 0 0 1 0 0) " stroke-linecap="round" />
	<path d="M 48.765 49.899 c 0.595 1.949 0.669 3.806 0.164 5.311 c -0.431 1.286 -1.229 2.14 -2.441 2.61 c -3.671 1.422 -10.406 -1.292 -14.216 -7.464 c -1.949 -3.156 -2.628 -6.487 -1.816 -8.908 c 0.431 -1.285 1.229 -2.139 2.441 -2.609 c 1.624 -0.631 3.71 -0.462 5.853 0.355 l 6.622 -6.54 c -5.185 -3.029 -10.92 -3.841 -15.655 -2.003 c -3.636 1.413 -6.331 4.255 -7.589 8.005 c -1.656 4.938 -0.683 10.884 2.67 16.315 c 4.582 7.421 12.398 12.006 19.51 12.006 c 1.857 0 3.668 -0.313 5.36 -0.97 c 3.636 -1.412 6.331 -4.255 7.588 -8.004 c 1.427 -4.257 0.896 -9.263 -1.424 -14.042 L 48.765 49.899 z" style="stroke: none; stroke-width: 1; stroke-dasharray: none; stroke-linecap: butt; stroke-linejoin: miter; stroke-miterlimit: 10; fill: rgb(38,70,188); fill-rule: nonzero; opacity: 1;" transform=" matrix(1 0 0 1 0 0) " stroke-linecap="round" />
</g>
</svg>