<svg xmlns="http://www.w3.org/2000/svg" xmlns:xlink="http://www.w3.org/1999/xlink" version="1.1" width="256" height="256" viewBox="0 0 256 256" xml:space="preserve">

<defs>
</defs>
<g style="stroke: none; stroke-width: 0; stroke-dasharray: none; stroke-linecap: butt; stroke-linejoin: miter; stroke-miterlimit: 10; fill: none; fill-rule: nonzero; opacity: 1;" transform="translate(1.4065934065934016 1.4065934065934016) scale(2.81 2.81)" >
	<circle cx="45" cy="45" r="44" style="stroke: none; stroke-width: 1; stroke-dasharray: none; stroke-linecap: butt; stroke-linejoin: miter; stroke-miterlimit: 10; fill: rgb(90,170,231); fill-rule: nonzero; opacity: 1;" transform="  matrix(1 0 0 1 0 0) "/>
	<path d="M 7.529 69.073 c -0.335 0 -0.663 -0.169 -0.852 -0.475 C 2.309 61.52 0 53.359 0 45 C 0 20.187 20.187 0 45 0 c 6.048 0 11.918 1.18 17.446 3.507 c 0.509 0.214 0.748 0.801 0.534 1.31 c -0.215 0.51 -0.803 0.748 -1.31 0.534 C 56.389 3.127 50.779 2 45 2 C 21.29 2 2 21.29 2 45 c 0 7.988 2.206 15.785 6.379 22.548 c 0.29 0.471 0.144 1.086 -0.326 1.376 C 7.889 69.025 7.708 69.073 7.529 69.073 z" style="stroke: none; stroke-width: 1; stroke-dasharray: none; stroke-linecap: butt; stroke-linejoin: miter; stroke-miterlimit: 10; fill: rgb(0,0,0); fill-rule: nonzero; opacity: 1;" transform=" matrix(1 0 0 1 0 0) " stroke-linecap="round" />
	<path d="M 45 90 c -5.723 0 -11.298 -1.06 -16.571 -3.149 c -0.513 -0.203 -0.765 -0.785 -0.561 -1.298 c 0.203 -0.513 0.784 -0.765 1.298 -0.562 C 34.204 86.987 39.531 88 45 88 c 23.71 0 43 -19.29 43 -43 c 0 -7.682 -2.05 -15.221 -5.929 -21.802 c -0.28 -0.476 -0.122 -1.089 0.354 -1.369 c 0.474 -0.282 1.088 -0.123 1.369 0.354 C 87.854 29.071 90 36.961 90 45 C 90 69.813 69.813 90 45 90 z" style="stroke: none; stroke-width: 1; stroke-dasharray: none; stroke-linecap: butt; stroke-linejoin: miter; stroke-miterlimit: 10; fill: rgb(0,0,0); fill-rule: nonzero; opacity: 1;" transform=" matrix(1 0 0 1 0 0) " stroke-linecap="round" />
	<path d="M 45 90 c -8.562 0 -15.269 -19.767 -15.269 -45 c 0 -0.552 0.448 -1 1 -1 s 1 0.448 1 1 c 0 25.722 6.861 43 13.269 43 c 3.567 0 7.215 -5.318 9.756 -14.227 c 0.152 -0.532 0.71 -0.839 1.236 -0.688 c 0.531 0.151 0.839 0.705 0.688 1.236 C 53.795 84.433 49.647 90 45 90 z" style="stroke: none; stroke-width: 1; stroke-dasharray: none; stroke-linecap: butt; stroke-linejoin: miter; stroke-miterlimit: 10; fill: rgb(0,0,0); fill-rule: nonzero; opacity: 1;" transform=" matrix(1 0 0 1 0 0) " stroke-linecap="round" />
	<path d="M 59.239 48.818 c -0.007 0 -0.014 0 -0.021 0 c -0.553 -0.012 -0.991 -0.469 -0.979 -1.021 c 0.02 -0.925 0.029 -1.858 0.029 -2.798 c 0 -25.722 -6.86 -43 -13.269 -43 c -3.882 0 -7.732 6.075 -10.299 16.251 c -0.135 0.535 -0.679 0.858 -1.214 0.725 c -0.536 -0.135 -0.86 -0.679 -0.725 -1.214 C 35.609 6.474 40.07 0 45 0 c 8.562 0 15.269 19.767 15.269 45 c 0 0.954 -0.01 1.9 -0.029 2.839 C 60.228 48.385 59.782 48.818 59.239 48.818 z" style="stroke: none; stroke-width: 1; stroke-dasharray: none; stroke-linecap: butt; stroke-linejoin: miter; stroke-miterlimit: 10; fill: rgb(0,0,0); fill-rule: nonzero; opacity: 1;" transform=" matrix(1 0 0 1 0 0) " stroke-linecap="round" />
	<path d="M 44.166 61.608 H 3.859 c -0.552 0 -1 -0.447 -1 -1 s 0.448 -1 1 -1 h 40.307 c 0.552 0 1 0.447 1 1 S 44.718 61.608 44.166 61.608 z" style="stroke: none; stroke-width: 1; stroke-dasharray: none; stroke-linecap: butt; stroke-linejoin: miter; stroke-miterlimit: 10; fill: rgb(0,0,0); fill-rule: nonzero; opacity: 1;" transform=" matrix(1 0 0 1 0 0) " stroke-linecap="round" />
	<path d="M 86.146 61.608 H 72.471 c -0.553 0 -1 -0.447 -1 -1 s 0.447 -1 1 -1 h 13.676 c 0.553 0 1 0.447 1 1 S 86.699 61.608 86.146 61.608 z" style="stroke: none; stroke-width: 1; stroke-dasharray: none; stroke-linecap: butt; stroke-linejoin: miter; stroke-miterlimit: 10; fill: rgb(0,0,0); fill-rule: nonzero; opacity: 1;" transform=" matrix(1 0 0 1 0 0) " stroke-linecap="round" />
	<path d="M 87.067 33.071 H 44.574 c -0.552 0 -1 -0.448 -1 -1 s 0.448 -1 1 -1 h 42.494 c 0.553 0 1 0.448 1 1 S 87.62 33.071 87.067 33.071 z" style="stroke: none; stroke-width: 1; stroke-dasharray: none; stroke-linecap: butt; stroke-linejoin: miter; stroke-miterlimit: 10; fill: rgb(0,0,0); fill-rule: nonzero; opacity: 1;" transform=" matrix(1 0 0 1 0 0) " stroke-linecap="round" />
	<path d="M 16.707 33.071 H 2.933 c -0.552 0 -1 -0.448 -1 -1 s 0.448 -1 1 -1 h 13.774 c 0.552 0 1 0.448 1 1 S 17.259 33.071 16.707 33.071 z" style="stroke: none; stroke-width: 1; stroke-dasharray: none; stroke-linecap: butt; stroke-linejoin: miter; stroke-miterlimit: 10; fill: rgb(0,0,0); fill-rule: nonzero; opacity: 1;" transform=" matrix(1 0 0 1 0 0) " stroke-linecap="round" />
	<circle cx="58.094" cy="60.604" r="7.464" style="stroke: none; stroke-width: 1; stroke-dasharray: none; stroke-linecap: butt; stroke-linejoin: miter; stroke-miterlimit: 10; fill: rgb(67,232,232); fill-rule: nonzero; opacity: 1;" transform="  matrix(1 0 0 1 0 0) "/>
	<circle cx="31.634" cy="32.074" r="7.464" style="stroke: none; stroke-width: 1; stroke-dasharray: none; stroke-linecap: butt; stroke-linejoin: miter; stroke-miterlimit: 10; fill: rgb(113,226,90); fill-rule: nonzero; opacity: 1;" transform="  matrix(1 0 0 1 0 0) "/>
	<circle cx="16.704" cy="78.454" r="7.464" style="stroke: none; stroke-width: 1; stroke-dasharray: none; stroke-linecap: butt; stroke-linejoin: miter; stroke-miterlimit: 10; fill: rgb(234,94,94); fill-rule: nonzero; opacity: 1;" transform="  matrix(1 0 0 1 0 0) "/>
	<circle cx="74.024" cy="11.894" r="7.464" style="stroke: none; stroke-width: 1; stroke-dasharray: none; stroke-linecap: butt; stroke-linejoin: miter; stroke-miterlimit: 10; fill: rgb(255,200,102); fill-rule: nonzero; opacity: 1;" transform="  matrix(1 0 0 1 0 0) "/>
	<path d="M 58.098 69.072 c -4.667 0 -8.464 -3.797 -8.464 -8.464 s 3.797 -8.464 8.464 -8.464 c 4.666 0 8.463 3.797 8.463 8.464 S 62.764 69.072 58.098 69.072 z M 58.098 54.145 c -3.564 0 -6.464 2.899 -6.464 6.464 s 2.899 6.464 6.464 6.464 c 3.563 0 6.463 -2.899 6.463 -6.464 S 61.661 54.145 58.098 54.145 z" style="stroke: none; stroke-width: 1; stroke-dasharray: none; stroke-linecap: butt; stroke-linejoin: miter; stroke-miterlimit: 10; fill: rgb(0,0,0); fill-rule: nonzero; opacity: 1;" transform=" matrix(1 0 0 1 0 0) " stroke-linecap="round" />
	<path d="M 31.634 40.535 c -4.667 0 -8.463 -3.797 -8.463 -8.463 s 3.797 -8.463 8.463 -8.463 s 8.463 3.797 8.463 8.463 S 36.3 40.535 31.634 40.535 z M 31.634 25.608 c -3.564 0 -6.463 2.899 -6.463 6.463 s 2.899 6.463 6.463 6.463 s 6.463 -2.899 6.463 -6.463 S 35.198 25.608 31.634 25.608 z" style="stroke: none; stroke-width: 1; stroke-dasharray: none; stroke-linecap: butt; stroke-linejoin: miter; stroke-miterlimit: 10; fill: rgb(0,0,0); fill-rule: nonzero; opacity: 1;" transform=" matrix(1 0 0 1 0 0) " stroke-linecap="round" />
	<path d="M 16.707 86.916 c -4.667 0 -8.463 -3.797 -8.463 -8.463 c 0 -4.667 3.797 -8.464 8.463 -8.464 c 4.667 0 8.464 3.797 8.464 8.464 C 25.17 83.119 21.374 86.916 16.707 86.916 z M 16.707 71.989 c -3.564 0 -6.463 2.899 -6.463 6.464 c 0 3.563 2.899 6.463 6.463 6.463 s 6.464 -2.899 6.464 -6.463 C 23.17 74.889 20.271 71.989 16.707 71.989 z" style="stroke: none; stroke-width: 1; stroke-dasharray: none; stroke-linecap: butt; stroke-linejoin: miter; stroke-miterlimit: 10; fill: rgb(0,0,0); fill-rule: nonzero; opacity: 1;" transform=" matrix(1 0 0 1 0 0) " stroke-linecap="round" />
	<path d="M 74.024 20.356 c -4.667 0 -8.464 -3.797 -8.464 -8.463 s 3.797 -8.463 8.464 -8.463 c 4.666 0 8.463 3.797 8.463 8.463 S 78.69 20.356 74.024 20.356 z M 74.024 5.429 c -3.564 0 -6.464 2.899 -6.464 6.463 s 2.899 6.463 6.464 6.463 c 3.563 0 6.463 -2.899 6.463 -6.463 S 77.588 5.429 74.024 5.429 z" style="stroke: none; stroke-width: 1; stroke-dasharray: none; stroke-linecap: butt; stroke-linejoin: miter; stroke-miterlimit: 10; fill: rgb(0,0,0); fill-rule: nonzero; opacity: 1;" transform=" matrix(1 0 0 1 0 0) " stroke-linecap="round" />
</g>
</svg>